:SAMPLES-PER-SECOND 30
:FULLY-SPECIFIED
:DEGREES
272
root  -1.29805 6.05735 15.5663 -45.5498 -4.87888 1.82151
RightUpLeg  -89.0301 -9.6357 5.9807
RightLeg  89.3904 16.1808 -7.77058
RightFoot  30.2346 3.08151 -8.03632
RightToes  5.82077e-011 -3.18055e-015 -2.98177e-016
Spine  38.0631 1.16129 4.0339
Spine1  11.9051 -0.632376 1.48089
HEad  -20.1719 10.6292 10.7737
LeftShoulder1  -3.88251e-019 9.70628e-020 -3.87848e-018
LeftArm  -3.62948 -34.7824 -37.8698
LeftForeArm  15.609 -37.4463 9.38424
LeftHand  -10.5202 -14.783 56.8984
RightShoulder  -0.320445 2.57695 -6.09875
RightArm  -25.369 22.3818 43.1635
RightForeArm  12.8983 40.7427 -24.0622
RightHand  -8.26019 10.1553 -56.4191
LeftUpLeg  -88.3258 6.88716 2.68337
LeftLeg  89.915 -13.9617 9.29847
LeftFoot  32.7402 -0.0745845 0.401731
LeftToes  5.91571e-011 -3.44359e-011 -3.93244e-011
273
root  -1.29428 6.05391 15.5611 -45.5387 -5.02968 1.78113
RightUpLeg  -88.9828 -9.4668 6.0828
RightLeg  89.2573 16.1727 -7.91645
RightFoot  30.2952 3.05407 -7.95616
RightToes  5.82077e-011 -3.18055e-015 -2.98177e-016
Spine  37.9477 1.13453 4.14055
Spine1  12.2409 -0.61166 1.38357
HEad  -20.4332 10.4163 10.4307
LeftShoulder1  -3.88251e-019 9.70628e-020 -3.87848e-018
LeftArm  -4.27324 -30.1173 -36.3712
LeftForeArm  18.8618 -42.055 11.2207
LeftHand  -10.8186 -15.1247 57.4184
RightShoulder  -0.0746483 3.30544 -4.12838
RightArm  -21.6712 17.4258 40.1963
RightForeArm  26.4651 46.4718 -29.892
RightHand  -9.97173 12.6104 -58.5072
LeftUpLeg  -88.3619 6.97602 2.81824
LeftLeg  89.9489 -13.9654 9.26722
LeftFoot  32.8793 -0.123985 0.51793
LeftToes  5.91571e-011 -3.44359e-011 -3.93244e-011
274
root  -1.30105 6.0492 15.564 -45.6269 -4.99383 1.79072
RightUpLeg  -88.9007 -9.42487 6.02616
RightLeg  89.208 16.176 -8.08923
RightFoot  30.3591 3.03686 -7.90106
RightToes  5.82077e-011 -3.18055e-015 -2.98177e-016
Spine  37.9186 1.05572 4.20359
Spine1  12.8015 -0.579344 1.16131
HEad  -21.0903 10.1706 10.1441
LeftShoulder1  -3.88251e-019 9.70628e-020 -3.87848e-018
LeftArm  -4.80269 -24.387 -34.9978
LeftForeArm  17.0956 -46.9681 13.2811
LeftHand  -10.854 -15.3275 57.0868
RightShoulder  0.234964 3.93305 -1.73012
RightArm  -17.2189 10.6745 37.2762
RightForeArm  20.8669 53.5994 -38.7783
RightHand  -10.4089 13.4955 -58.228
LeftUpLeg  -88.2884 6.9745 2.79931
LeftLeg  89.9846 -13.966 9.19949
LeftFoot  32.8236 -0.141962 0.560596
LeftToes  5.91571e-011 -3.44359e-011 -3.93244e-011
275
root  -1.31212 6.05447 15.5672 -45.8969 -4.63127 1.77089
RightUpLeg  -88.6653 -9.75436 5.7197
RightLeg  89.3901 16.1923 -7.97862
RightFoot  30.2747 3.04498 -7.93738
RightToes  5.82077e-011 -3.18055e-015 -2.98177e-016
Spine  38.0639 0.885096 4.24116
Spine1  13.6667 -0.604161 0.943226
HEad  -22.2967 10.2284 10.0754
LeftShoulder1  -3.88251e-019 9.70628e-020 -3.87848e-018
LeftArm  -5.99329 -17.6395 -33.9919
LeftForeArm  13.5172 -51.3322 15.3898
LeftHand  -10.6857 -15.1344 56.7975
RightShoulder  0.606833 4.59664 0.932919
RightArm  -12.5012 2.76699 33.7066
RightForeArm  0.552363 59.8195 -50.3782
RightHand  -10.2225 12.978 -58.7007
LeftUpLeg  -87.9891 6.68588 2.56795
LeftLeg  89.9664 -13.9631 9.19283
LeftFoot  32.6441 -0.114672 0.496948
LeftToes  5.91571e-011 -3.44359e-011 -3.93244e-011
276
root  -1.33459 6.07044 15.5684 -45.9747 -4.19007 1.84674
RightUpLeg  -88.6601 -10.1355 5.38493
RightLeg  89.627 16.2068 -7.73124
RightFoot  30.1092 3.06938 -8.03012
RightToes  5.82077e-011 -3.18055e-015 -2.98177e-016
Spine  38.0043 0.972356 3.96109
Spine1  14.8714 -0.663544 1.27655
HEad  -24.2496 10.5157 9.80955
LeftShoulder1  -3.88251e-019 9.70628e-020 -3.87848e-018
LeftArm  -7.49834 -9.45437 -33.0461
LeftForeArm  9.23248 -55.221 17.6142
LeftHand  -10.6489 -14.9796 57.0041
RightShoulder  1.07078 5.33044 3.99571
RightArm  -9.57567 -5.18903 29.6374
RightForeArm  -19.0735 64.0175 -64.0766
RightHand  -10.3435 12.6688 -60.1162
LeftUpLeg  -87.8372 6.51576 2.13051
LeftLeg  89.8793 -13.9532 9.23252
LeftFoot  32.5113 -0.0666846 0.383508
LeftToes  5.91571e-011 -3.44359e-011 -3.93244e-011
277
root  -1.37302 6.07988 15.5806 -45.5694 -4.00521 2.1338
RightUpLeg  -89.2362 -10.148 5.3162
RightLeg  89.6995 16.2148 -7.72243
RightFoot  30.0643 3.10054 -8.117
RightToes  5.82077e-011 -3.18055e-015 -2.98177e-016
Spine  37.5322 1.43267 3.22619
Spine1  16.0444 -0.729295 2.19984
HEad  -26.3751 10.628 8.94501
LeftShoulder1  -3.88251e-019 9.70628e-020 -3.87848e-018
LeftArm  -8.02243 0.398678 -31.8433
LeftForeArm  3.44238 -58.5706 19.836
LeftHand  -10.6232 -15.0544 56.7064
RightShoulder  1.66499 6.15231 7.60527
RightArm  -8.68877 -13.0352 25.7167
RightForeArm  -31.1529 65.9761 -77.1801
RightHand  -10.563 13.0316 -60.1799
LeftUpLeg  -88.2025 6.90864 1.59905
LeftLeg  89.8376 -13.9431 9.1705
LeftFoot  32.5132 -0.0795116 0.41394
LeftToes  5.91571e-011 -3.44359e-011 -3.93244e-011
278
root  -1.39216 6.06899 15.5981 -45.141 -4.14099 2.40067
RightUpLeg  -89.8511 -10.0018 5.55611
RightLeg  89.657 16.2161 -7.82977
RightFoot  30.1382 3.09595 -8.09113
RightToes  5.82077e-011 -3.18055e-015 -2.98177e-016
Spine  37.1365 1.76634 2.61289
Spine1  16.7776 -0.865519 3.01199
HEad  -27.8062 10.6175 7.84157
LeftShoulder1  -3.88251e-019 9.70628e-020 -3.87848e-018
LeftArm  -6.65224 11.3 -30.2294
LeftForeArm  -2.30682 -60.2701 20.9289
LeftHand  -10.1635 -14.8177 55.1628
RightShoulder  2.36666 6.99437 11.5452
RightArm  -7.74124 -21.5451 21.8682
RightForeArm  -39.5236 66.5688 -85.9866
RightHand  -10.6503 13.3432 -59.7562
LeftUpLeg  -88.6949 7.5806 1.25173
LeftLeg  89.9128 -13.9456 9.04266
LeftFoot  32.603 -0.181442 0.655615
LeftToes  5.91571e-011 -3.44359e-011 -3.93244e-011
279
root  -1.34686 6.05485 15.5807 -45.3392 -4.65214 2.23445
RightUpLeg  -89.5678 -10.0901 6.20254
RightLeg  89.4694 16.1923 -7.80692
RightFoot  30.2246 3.06372 -7.99373
RightToes  5.82077e-011 -3.18055e-015 -2.98177e-016
Spine  37.4547 1.53489 3.01589
Spine1  17.0626 -1.06337 3.20063
HEad  -28.4886 11.0204 7.25027
LeftShoulder1  -3.88251e-019 9.70628e-020 -3.87848e-018
LeftArm  -3.11581 22.2705 -28.0619
LeftForeArm  -5.09142 -59.4756 19.9335
LeftHand  -9.50372 -14.2354 53.444
RightShoulder  2.99367 7.57496 14.9668
RightArm  -4.47069 -31.2311 17.3899
RightForeArm  -46.6466 66.7984 -88.085
RightHand  -10.6275 13.192 -60.053
LeftUpLeg  -88.5988 8.03841 1.5555
LeftLeg  89.9965 -13.959 9.0681
LeftFoot  32.7001 -0.279892 0.887975
LeftToes  5.91571e-011 -3.44359e-011 -3.93244e-011
280
root  -1.25873 6.07474 15.5207 -45.8341 -5.65568 1.57693
RightUpLeg  -88.5647 -10.2476 7.47551
RightLeg  88.9161 16.131 -7.9157
RightFoot  30.3565 3.1164 -8.09971
RightToes  5.82077e-011 -3.18055e-015 -2.98177e-016
Spine  38.197 0.977203 4.41905
Spine1  17.0871 -1.16757 3.02163
HEad  -28.8446 11.8615 7.36989
LeftShoulder1  -3.88251e-019 9.70628e-020 -3.87848e-018
LeftArm  3.00076 32.8248 -25.2518
LeftForeArm  -6.0851 -56.9465 17.7764
LeftHand  -9.13367 -13.8827 52.4751
RightShoulder  3.37363 7.75308 17.1916
RightArm  1.72579 -41.1933 11.871
RightForeArm  -48.3823 66.8233 -82.7421
RightHand  -10.438 12.8632 -60.0373
LeftUpLeg  -88.1244 8.39135 2.64408
LeftLeg  89.9949 -13.9686 9.22445
LeftFoot  32.7709 -0.299337 0.93292
LeftToes  5.91571e-011 -3.44359e-011 -3.93244e-011
281
root  -1.20942 6.13339 15.4689 -45.8586 -6.97414 0.79371
RightUpLeg  -87.8215 -10.0759 9.13959
RightLeg  88.2167 16.0552 -8.16918
RightFoot  30.4557 3.22911 -8.36082
RightToes  5.82077e-011 -3.18055e-015 -2.98177e-016
Spine  38.626 0.656987 5.74312
Spine1  16.8937 -1.07121 3.08128
HEad  -28.7412 12.5554 7.61303
LeftShoulder1  -3.88251e-019 9.70628e-020 -3.87848e-018
LeftArm  12.1632 42.9925 -21.7675
LeftForeArm  -8.52625 -54.0213 15.5849
LeftHand  -8.91684 -13.638 51.9784
RightShoulder  3.62632 7.80887 18.7431
RightArm  10.2487 -49.607 5.10683
RightForeArm  -40.7383 65.7579 -70.5299
RightHand  -10.0298 12.5013 -59.0485
LeftUpLeg  -88.0327 9.06633 4.03979
LeftLeg  90.0315 -13.9681 9.14633
LeftFoot  32.788 -0.295038 0.922482
LeftToes  5.91571e-011 -3.44359e-011 -3.93244e-011
